Coordinates
version=1
nRows=11
nColumns=40
inDegrees=yes

Units are S.I. units (second, meters, Newtons, ...)
Angles are in degrees.

endheader
time	pelvis_tilt	pelvis_list	pelvis_rotation	pelvis_tx	pelvis_ty	pelvis_tz	hip_flexion_r	hip_adduction_r	hip_rotation_r	knee_angle_r	knee_angle_r_beta	ankle_angle_r	subtalar_angle_r	mtp_angle_r	hip_flexion_l	hip_adduction_l	hip_rotation_l	knee_angle_l	knee_angle_l_beta	ankle_angle_l	subtalar_angle_l	mtp_angle_l	lumbar_extension	lumbar_bending	lumbar_rotation	arm_flex_r	arm_add_r	arm_rot_r	elbow_flex_r	pro_sup_r	wrist_flex_r	wrist_dev_r	arm_flex_l	arm_add_l	arm_rot_l	elbow_flex_l	pro_sup_l	wrist_flex_l	wrist_dev_l
     18.75500000	     -3.77313600	     -3.38139337	      4.90150605	      0.77505907	      0.93300842	      0.50551054	      9.33761753	      2.52875722	    -17.67843025	     13.89291661	     13.89291661	     10.21355984	     -1.29439248	     -6.79784096	     31.36604165	     -8.03669213	      2.31826891	     36.69178984	     36.69178984	     11.08328844	    -16.02742903	      9.81474742	    -10.21586527	      6.24967147	      3.45811599	     27.80364299	    -18.92409418	     -2.19974283	     59.47693737	     45.32081561	      0.00000000	      0.00000000	     -2.18996359	     -6.25448827	     -3.55722313	     26.31621454	     46.02938966	      0.00000000	      0.00000000
     18.76857143	     -3.92256998	     -3.27699459	      5.15498428	      0.77381053	      0.93298432	      0.50588636	      8.87500628	      2.53227915	    -17.73763454	     13.47876244	     13.47876244	     10.43031440	     -1.25409142	     -6.87506611	     31.47023085	     -7.58803385	      2.40158523	     32.46627305	     32.46627305	     11.09936560	    -14.47218540	     10.01566255	    -10.19872037	      6.07588212	      3.62690391	     29.74501702	    -19.12242037	     -2.33780919	     61.07921297	     45.28163791	      0.00000000	      0.00000000	     -3.24533953	     -6.36670116	     -3.58508851	     25.73001810	     46.01598648	      0.00000000	      0.00000000
     18.78214286	     -4.03500097	     -3.33837674	      5.45660825	      0.77281598	      0.93271721	      0.50612111	      8.33343088	      2.71103961	    -18.01577030	     12.98787630	     12.98787630	     10.60850682	     -1.07119097	     -6.98818986	     31.58587494	     -7.28252894	      2.54896632	     28.52986849	     28.52986849	     11.15454721	    -12.73205426	     10.00544738	    -10.14880907	      6.11508414	      3.54968942	     31.65952870	    -19.16246981	     -2.37539124	     63.21303150	     45.22104480	      0.00000000	      0.00000000	     -4.33358270	     -6.45448074	     -3.60831366	     25.15684571	     46.00123136	      0.00000000	      0.00000000
     18.79571429	     -4.14340920	     -3.38329639	      5.75651549	      0.77197936	      0.93238525	      0.50631534	      7.79241586	      2.86620339	    -18.25902006	     12.53811840	     12.53811840	     10.81321984	     -0.85751786	     -7.12165680	     31.65375009	     -6.99514267	      2.57241194	     24.80884539	     24.80884539	     11.01522942	    -10.66785597	     10.08042444	    -10.07020831	      6.12865242	      3.52484413	     33.42488187	    -19.19562542	     -2.36575656	     65.38630833	     45.15757199	      0.00000000	      0.00000000	     -5.39316407	     -6.54866549	     -3.63261286	     24.72521467	     45.98617901	      0.00000000	      0.00000000
     18.80928571	     -4.23792419	     -3.49840909	      6.05546322	      0.77135560	      0.93186053	      0.50640731	      7.25598858	      3.09574868	    -18.53400438	     12.13209993	     12.13209993	     11.06924749	     -0.66555324	     -7.26984480	     31.79865039	     -6.78191863	      2.51053839	     21.59876000	     21.59876000	     10.86181687	     -8.62011939	     10.17383914	    -10.00213141	      6.21539291	      3.52595125	     35.08738704	    -19.22695392	     -2.35159240	     67.51912337	     45.09576444	      0.00000000	      0.00000000	     -6.41347667	     -6.65907969	     -3.65346260	     24.41832694	     45.97033305	      0.00000000	      0.00000000
     18.82285714	     -4.23700817	     -3.67704949	      6.38053615	      0.77098560	      0.93133232	      0.50639829	      6.54905357	      3.41044582	    -18.90310629	     11.61843614	     11.61843614	     11.29201417	     -0.28740902	     -7.47575745	     31.96005062	     -6.67562322	      2.24656945	     18.98974486	     18.98974486	     10.58404874	     -6.44942126	      9.97548736	    -10.03356239	      6.42061158	      3.50251280	     36.50166011	    -19.30077839	     -2.19915545	     70.55268309	     45.00347764	      0.00000000	      0.00000000	     -7.47304140	     -6.76311193	     -3.66485770	     24.40743442	     45.94914995	      0.00000000	      0.00000000
     18.83642857	     -4.29882777	     -3.74606872	      6.65720742	      0.77077883	      0.93073066	      0.50630847	      6.01151430	      3.58011421	    -19.06821937	     11.34435495	     11.34435495	     11.60459701	     -0.23993067	     -7.58016318	     32.09419192	     -6.43665543	      1.97073849	     16.72372373	     16.72372373	     10.20287324	     -4.83032876	     10.23660213	     -9.87703090	      6.45015973	      3.58875171	     37.96410949	    -19.25613488	     -2.25375266	     72.17013265	     44.96226186	      0.00000000	      0.00000000	     -8.35646247	     -6.90408065	     -3.65533543	     24.22114271	     45.92998152	      0.00000000	      0.00000000
     18.85000000	     -4.26665178	     -3.87001235	      6.94787425	      0.77080909	      0.93013365	      0.50609488	      5.29113209	      3.83657047	    -19.28833498	     10.92551086	     10.92551086	     11.89014427	     -0.00685540	     -7.62654194	     32.29480436	     -6.29509621	      1.54152055	     15.25267677	     15.25267677	      9.80704151	     -3.36274384	     10.17428785	     -9.86234905	      6.56974057	      3.50150367	     39.38248782	    -19.06562037	     -2.22090065	     74.38955381	     44.90162330	      0.00000000	      0.00000000	     -9.32535597	     -7.02425642	     -3.61589390	     24.27743337	     45.90080354	      0.00000000	      0.00000000
     18.86357143	     -4.21283369	     -3.98141892	      7.19809192	      0.77104673	      0.92951128	      0.50583731	      4.56866513	      4.07878206	    -19.46836068	     10.57992447	     10.57992447	     12.22212175	      0.17352083	     -7.61490906	     32.45560353	     -6.17285257	      1.01516113	     14.28087016	     14.28087016	      9.31884534	     -2.35643531	      9.98903849	     -9.79922420	      6.65796764	      3.48716404	     40.63351664	    -18.85812503	     -2.18347637	     76.36024037	     44.84991801	      0.00000000	      0.00000000	    -10.26279484	     -7.16806226	     -3.56047004	     24.43313112	     45.86855005	      0.00000000	      0.00000000
     18.87714286	     -4.12022102	     -4.10676809	      7.39648661	      0.77150708	      0.92888542	      0.50548930	      3.82401986	      4.32907516	    -19.57980001	     10.29475339	     10.29475339	     12.57600893	      0.33780729	     -7.55775640	     32.55171049	     -6.10171238	      0.51325648	     13.81389500	     13.81389500	      8.78557063	     -1.82707629	      9.75210374	     -9.74499998	      6.77031761	      3.46266670	     41.85786071	    -18.54982657	     -2.14747936	     78.05460508	     44.80611773	      0.00000000	      0.00000000	    -11.12302606	     -7.28951026	     -3.50536298	     24.54817835	     45.83871930	      0.00000000	      0.00000000
     18.89071429	     -4.02370810	     -4.25166983	      7.55721494	      0.77221813	      0.92811382	      0.50505528	      3.04733215	      4.60205643	    -19.69492203	      9.98487001	      9.98487001	     12.94587046	      0.57775373	     -7.40428267	     32.66840664	     -6.08829836	      0.02840149	     13.90735044	     13.90735044	      8.22064645	     -1.71559308	      9.21919781	     -9.65404542	      6.89404773	      3.46812697	     42.90767801	    -18.24832549	     -2.06637811	     79.78014128	     44.76145509	      0.00000000	      0.00000000	    -12.00219681	     -7.41400465	     -3.44641572	     24.82635926	     45.80726882	      0.00000000	      0.00000000
